<svg width="1200" height="1500" viewBox="0 0 1200 1500" fill="none" xmlns="http://www.w3.org/2000/svg">
  <defs>
    <linearGradient id="bg" x1="0" y1="0" x2="1200" y2="1500" gradientUnits="userSpaceOnUse">
      <stop stop-color="#ECFDF5"/>
      <stop offset="1" stop-color="#86EFAC"/>
    </linearGradient>
    <radialGradient id="glow" cx="0" cy="0" r="1" gradientUnits="userSpaceOnUse" gradientTransform="translate(600 440) rotate(90) scale(500 420)">
      <stop stop-color="#FFFFFF" stop-opacity="0.9"/>
      <stop offset="1" stop-color="#FFFFFF" stop-opacity="0"/>
    </radialGradient>
  </defs>
  <rect width="1200" height="1500" rx="80" fill="url(#bg)"/>
  <rect width="1200" height="1500" rx="80" fill="url(#glow)"/>
  <circle cx="340" cy="360" r="170" fill="#FFF" fill-opacity="0.18"/>
  <circle cx="900" cy="330" r="210" fill="#14532D" fill-opacity="0.12"/>
  <ellipse cx="600" cy="1030" rx="390" ry="255" fill="#14532D" fill-opacity="0.18"/>
  <ellipse cx="600" cy="1015" rx="290" ry="165" fill="#FFF7ED"/>
  <circle cx="505" cy="940" r="90" fill="#F59E0B"/>
  <circle cx="615" cy="900" r="96" fill="#16A34A"/>
  <circle cx="720" cy="960" r="92" fill="#22C55E"/>
  <circle cx="470" cy="1075" r="88" fill="#84CC16"/>
  <circle cx="675" cy="1090" r="96" fill="#A3E635"/>
  <path d="M385 1110C470 1000 556 950 600 950C658 950 734 995 825 1095" stroke="#7C2D12" stroke-width="24" stroke-linecap="round" opacity="0.32"/>
  <rect x="220" y="1180" width="760" height="110" rx="55" fill="#FFFFFF" fill-opacity="0.3"/>
  <text x="600" y="1360" text-anchor="middle" fill="#14532D" font-size="64" font-family="Arial, Helvetica, sans-serif" font-weight="700">Veggie Bowl</text>
</svg>